<mxfile host="Electron" agent="Mozilla/5.0 (Windows NT 10.0; Win64; x64) AppleWebKit/537.36 (KHTML, like Gecko) draw.io/25.0.2 Chrome/128.0.6613.186 Electron/32.2.5 Safari/537.36" version="25.0.2">
  <diagram name="第 1 页" id="bJ6mwmbkwY7XHwHpn_ra">
    <mxGraphModel dx="989" dy="659" grid="1" gridSize="10" guides="1" tooltips="1" connect="1" arrows="1" fold="1" page="1" pageScale="1" pageWidth="827" pageHeight="1169" math="0" shadow="0">
      <root>
        <mxCell id="0" />
        <mxCell id="1" parent="0" />
        <mxCell id="IIuMpdZD0Lu44luz7Gel-4" style="edgeStyle=orthogonalEdgeStyle;rounded=0;orthogonalLoop=1;jettySize=auto;html=1;exitX=0.5;exitY=1;exitDx=0;exitDy=0;entryX=0.5;entryY=0;entryDx=0;entryDy=0;" parent="1" source="IIuMpdZD0Lu44luz7Gel-2" target="IIuMpdZD0Lu44luz7Gel-3" edge="1">
          <mxGeometry relative="1" as="geometry" />
        </mxCell>
        <mxCell id="IIuMpdZD0Lu44luz7Gel-2" value="&lt;font style=&quot;font-size: 17px;&quot;&gt;開始&lt;/font&gt;" style="ellipse;whiteSpace=wrap;html=1;" parent="1" vertex="1">
          <mxGeometry x="200" y="80" width="80" height="40" as="geometry" />
        </mxCell>
        <mxCell id="gXE6MyRVOh0Qc9UfLYuK-2" value="" style="edgeStyle=orthogonalEdgeStyle;rounded=0;orthogonalLoop=1;jettySize=auto;html=1;" edge="1" parent="1" source="IIuMpdZD0Lu44luz7Gel-3" target="gXE6MyRVOh0Qc9UfLYuK-1">
          <mxGeometry relative="1" as="geometry" />
        </mxCell>
        <mxCell id="IIuMpdZD0Lu44luz7Gel-3" value="&lt;font style=&quot;font-size: 17px;&quot;&gt;發現問題&lt;/font&gt;" style="rounded=0;whiteSpace=wrap;html=1;" parent="1" vertex="1">
          <mxGeometry x="180" y="160" width="120" height="40" as="geometry" />
        </mxCell>
        <mxCell id="gXE6MyRVOh0Qc9UfLYuK-4" value="" style="edgeStyle=orthogonalEdgeStyle;rounded=0;orthogonalLoop=1;jettySize=auto;html=1;" edge="1" parent="1" source="gXE6MyRVOh0Qc9UfLYuK-1" target="gXE6MyRVOh0Qc9UfLYuK-3">
          <mxGeometry relative="1" as="geometry" />
        </mxCell>
        <mxCell id="gXE6MyRVOh0Qc9UfLYuK-1" value="&lt;font style=&quot;font-size: 17px;&quot;&gt;建立混淆矩陣&lt;/font&gt;" style="rounded=0;whiteSpace=wrap;html=1;" vertex="1" parent="1">
          <mxGeometry x="180" y="240" width="120" height="40" as="geometry" />
        </mxCell>
        <mxCell id="gXE6MyRVOh0Qc9UfLYuK-13" style="edgeStyle=orthogonalEdgeStyle;rounded=0;orthogonalLoop=1;jettySize=auto;html=1;exitX=0.5;exitY=1;exitDx=0;exitDy=0;entryX=0.5;entryY=0;entryDx=0;entryDy=0;" edge="1" parent="1" source="gXE6MyRVOh0Qc9UfLYuK-3" target="gXE6MyRVOh0Qc9UfLYuK-7">
          <mxGeometry relative="1" as="geometry" />
        </mxCell>
        <mxCell id="gXE6MyRVOh0Qc9UfLYuK-3" value="&lt;font style=&quot;font-size: 17px;&quot;&gt;40發明原則&lt;/font&gt;" style="rounded=0;whiteSpace=wrap;html=1;" vertex="1" parent="1">
          <mxGeometry x="180" y="320" width="120" height="40" as="geometry" />
        </mxCell>
        <mxCell id="gXE6MyRVOh0Qc9UfLYuK-22" style="edgeStyle=orthogonalEdgeStyle;rounded=0;orthogonalLoop=1;jettySize=auto;html=1;exitX=1;exitY=0.5;exitDx=0;exitDy=0;entryX=0;entryY=0.5;entryDx=0;entryDy=0;" edge="1" parent="1" source="gXE6MyRVOh0Qc9UfLYuK-7" target="gXE6MyRVOh0Qc9UfLYuK-11">
          <mxGeometry relative="1" as="geometry" />
        </mxCell>
        <mxCell id="gXE6MyRVOh0Qc9UfLYuK-7" value="&lt;font style=&quot;font-size: 17px;&quot;&gt;設計最佳化模型&lt;/font&gt;" style="rounded=0;whiteSpace=wrap;html=1;" vertex="1" parent="1">
          <mxGeometry x="180" y="400" width="120" height="50" as="geometry" />
        </mxCell>
        <mxCell id="gXE6MyRVOh0Qc9UfLYuK-15" value="" style="edgeStyle=orthogonalEdgeStyle;rounded=0;orthogonalLoop=1;jettySize=auto;html=1;" edge="1" parent="1" source="gXE6MyRVOh0Qc9UfLYuK-11" target="gXE6MyRVOh0Qc9UfLYuK-14">
          <mxGeometry relative="1" as="geometry" />
        </mxCell>
        <mxCell id="gXE6MyRVOh0Qc9UfLYuK-11" value="&lt;font style=&quot;font-size: 17px;&quot;&gt;程式碼撰寫&lt;/font&gt;" style="rounded=0;whiteSpace=wrap;html=1;" vertex="1" parent="1">
          <mxGeometry x="370" y="160" width="120" height="40" as="geometry" />
        </mxCell>
        <mxCell id="gXE6MyRVOh0Qc9UfLYuK-17" value="" style="edgeStyle=orthogonalEdgeStyle;rounded=0;orthogonalLoop=1;jettySize=auto;html=1;" edge="1" parent="1" source="gXE6MyRVOh0Qc9UfLYuK-14" target="gXE6MyRVOh0Qc9UfLYuK-16">
          <mxGeometry relative="1" as="geometry" />
        </mxCell>
        <mxCell id="gXE6MyRVOh0Qc9UfLYuK-14" value="&lt;font style=&quot;font-size: 17px;&quot;&gt;模型性能評估&lt;/font&gt;" style="rounded=0;whiteSpace=wrap;html=1;" vertex="1" parent="1">
          <mxGeometry x="370" y="240" width="120" height="40" as="geometry" />
        </mxCell>
        <mxCell id="gXE6MyRVOh0Qc9UfLYuK-19" value="" style="edgeStyle=orthogonalEdgeStyle;rounded=0;orthogonalLoop=1;jettySize=auto;html=1;" edge="1" parent="1" source="gXE6MyRVOh0Qc9UfLYuK-16" target="gXE6MyRVOh0Qc9UfLYuK-18">
          <mxGeometry relative="1" as="geometry" />
        </mxCell>
        <mxCell id="gXE6MyRVOh0Qc9UfLYuK-16" value="&lt;font style=&quot;font-size: 17px;&quot;&gt;模型參數調整&lt;/font&gt;" style="rounded=0;whiteSpace=wrap;html=1;" vertex="1" parent="1">
          <mxGeometry x="370" y="320" width="120" height="40" as="geometry" />
        </mxCell>
        <mxCell id="gXE6MyRVOh0Qc9UfLYuK-21" value="" style="edgeStyle=orthogonalEdgeStyle;rounded=0;orthogonalLoop=1;jettySize=auto;html=1;" edge="1" parent="1" source="gXE6MyRVOh0Qc9UfLYuK-18" target="gXE6MyRVOh0Qc9UfLYuK-20">
          <mxGeometry relative="1" as="geometry" />
        </mxCell>
        <mxCell id="gXE6MyRVOh0Qc9UfLYuK-18" value="&lt;font style=&quot;font-size: 17px;&quot;&gt;最佳模型&lt;/font&gt;" style="rounded=0;whiteSpace=wrap;html=1;" vertex="1" parent="1">
          <mxGeometry x="370" y="400" width="120" height="40" as="geometry" />
        </mxCell>
        <mxCell id="gXE6MyRVOh0Qc9UfLYuK-20" value="&lt;font style=&quot;font-size: 17px;&quot;&gt;結束&lt;/font&gt;" style="ellipse;whiteSpace=wrap;html=1;rounded=0;" vertex="1" parent="1">
          <mxGeometry x="390" y="480" width="80" height="40" as="geometry" />
        </mxCell>
      </root>
    </mxGraphModel>
  </diagram>
</mxfile>
